<svg xmlns="http://www.w3.org/2000/svg" xmlns:xlink="http://www.w3.org/1999/xlink" width="500" zoomAndPan="magnify" viewBox="0 0 375 225" height="300" preserveAspectRatio="xMidYMid meet" version="1.0"><defs><g/><clipPath id="f21e11bbd3"><path d="M 150 111 L 301 111 L 301 146.171875 L 150 146.171875 Z M 150 111 " clip-rule="nonzero"/></clipPath></defs><path fill="#5ce1e6" d="M 358.964844 88.96875 C 352.964844 88.96875 346.105469 87.46875 338.414062 84.464844 C 336.921875 83.882812 335.398438 83.269531 333.925781 82.671875 C 324.691406 78.929688 315.136719 75.058594 305.664062 76.554688 C 303.582031 76.882812 301.53125 77.457031 299.402344 78.304688 C 298.425781 78.695312 297.320312 78.21875 296.929688 77.242188 C 296.539062 76.265625 297.015625 75.160156 297.992188 74.769531 C 300.355469 73.832031 302.730469 73.164062 305.066406 72.796875 C 315.582031 71.136719 325.632812 75.203125 335.355469 79.144531 C 336.816406 79.734375 338.324219 80.34375 339.792969 80.917969 C 353.691406 86.347656 364.445312 86.574219 371.757812 81.597656 C 372.625 81.007812 373.808594 81.230469 374.402344 82.097656 C 374.992188 82.96875 374.769531 84.152344 373.898438 84.746094 C 369.761719 87.5625 364.769531 88.96875 358.964844 88.96875 Z M 358.964844 88.96875 " fill-opacity="1" fill-rule="nonzero"/><path fill="#5ce1e6" d="M 250.847656 105.390625 C 250.363281 105.390625 249.875 105.375 249.386719 105.347656 C 238.140625 104.722656 229.691406 97.097656 221.523438 89.71875 C 215.328125 84.125 208.917969 78.34375 201.394531 75.738281 C 195.597656 73.726562 189.011719 73.558594 181.816406 75.238281 C 180.792969 75.476562 179.769531 74.84375 179.53125 73.820312 C 179.292969 72.796875 179.925781 71.769531 180.949219 71.535156 C 188.851562 69.695312 196.144531 69.894531 202.632812 72.144531 C 210.890625 75.003906 217.585938 81.050781 224.0625 86.898438 C 232.097656 94.152344 239.6875 101 249.589844 101.554688 C 258.179688 102.03125 265.367188 97.605469 271.847656 92.757812 C 272.6875 92.128906 273.878906 92.296875 274.511719 93.144531 C 275.136719 93.984375 274.96875 95.175781 274.125 95.808594 C 267.742188 100.582031 260.03125 105.398438 250.84375 105.398438 Z M 250.847656 105.390625 " fill-opacity="1" fill-rule="nonzero"/><path fill="#5ce1e6" d="M 114.253906 102.964844 C 101.28125 102.964844 88.714844 97.410156 76.996094 91.308594 C 75.730469 90.652344 74.460938 89.980469 73.1875 89.3125 C 62.355469 83.605469 51.152344 77.703125 39.121094 76.203125 C 26.667969 74.652344 11.195312 79.367188 5.714844 91.386719 C 5.277344 92.339844 4.152344 92.761719 3.195312 92.324219 C 2.242188 91.886719 1.820312 90.761719 2.257812 89.804688 C 8.789062 75.480469 26.195312 70.753906 39.597656 72.429688 C 52.316406 74.015625 63.832031 80.082031 74.96875 85.945312 C 76.238281 86.613281 77.5 87.277344 78.765625 87.9375 C 90.136719 93.859375 103.433594 100.09375 117.292969 99.054688 C 128.636719 98.199219 138.835938 92.632812 149.152344 86.515625 C 150.054688 85.976562 151.222656 86.273438 151.757812 87.179688 C 152.292969 88.085938 151.996094 89.25 151.09375 89.785156 C 140.371094 96.148438 129.738281 101.933594 117.578125 102.847656 C 116.46875 102.929688 115.367188 102.96875 114.261719 102.96875 Z M 114.253906 102.964844 " fill-opacity="1" fill-rule="nonzero"/><path fill="#0cc0df" d="M 249.050781 124.871094 C 248.558594 124.871094 248.070312 124.855469 247.570312 124.828125 C 243.738281 124.617188 240.039062 123.59375 236.265625 121.710938 C 235.324219 121.242188 234.945312 120.097656 235.410156 119.15625 C 235.878906 118.21875 237.023438 117.835938 237.964844 118.304688 C 241.269531 119.953125 244.480469 120.84375 247.785156 121.027344 C 258.511719 121.621094 267.214844 114.621094 276.429688 107.207031 C 284.566406 100.664062 292.980469 93.894531 303.253906 92.273438 C 313.773438 90.613281 323.824219 94.679688 333.539062 98.621094 C 335 99.214844 336.511719 99.820312 337.980469 100.398438 C 351.878906 105.824219 362.632812 106.050781 369.941406 101.074219 C 370.808594 100.484375 371.992188 100.707031 372.585938 101.578125 C 373.175781 102.445312 372.953125 103.628906 372.085938 104.222656 C 363.675781 109.945312 351.738281 109.855469 336.597656 103.945312 C 335.105469 103.359375 333.585938 102.746094 332.109375 102.148438 C 322.875 98.40625 313.324219 94.535156 303.847656 96.03125 C 294.574219 97.496094 286.5625 103.941406 278.8125 110.171875 C 269.824219 117.398438 260.542969 124.867188 249.050781 124.867188 Z M 249.050781 124.871094 " fill-opacity="1" fill-rule="nonzero"/><path fill="#0cc0df" d="M 112.480469 122.441406 C 101.226562 122.441406 90.75 118.253906 83.621094 114.960938 C 82.664062 114.519531 82.25 113.390625 82.691406 112.433594 C 83.132812 111.480469 84.261719 111.0625 85.21875 111.503906 C 92.652344 114.9375 103.878906 119.394531 115.472656 118.527344 C 127.921875 117.589844 139.234375 110.828125 150.179688 104.289062 C 152.105469 103.136719 154.097656 101.949219 156.0625 100.8125 C 167.511719 94.175781 184.617188 86.003906 200.832031 91.621094 C 207.453125 93.914062 213.046875 98.289062 217.644531 102.269531 C 218.4375 102.957031 218.527344 104.15625 217.839844 104.953125 C 217.148438 105.746094 215.949219 105.835938 215.15625 105.144531 C 210.828125 101.40625 205.597656 97.300781 199.582031 95.21875 C 188.363281 91.332031 175.140625 94.15625 157.964844 104.101562 C 156.023438 105.226562 154.046875 106.414062 152.128906 107.554688 C 140.804688 114.320312 129.101562 121.320312 115.753906 122.320312 C 114.65625 122.40625 113.566406 122.441406 112.480469 122.441406 Z M 112.480469 122.441406 " fill-opacity="1" fill-rule="nonzero"/><path fill="#0cc0df" d="M 2.167969 111.976562 C 1.90625 111.976562 1.636719 111.921875 1.382812 111.804688 C 0.425781 111.367188 0.00390625 110.242188 0.441406 109.285156 C 6.976562 94.960938 24.378906 90.234375 37.78125 91.910156 C 43.035156 92.566406 48.488281 94.035156 54.433594 96.402344 C 55.414062 96.789062 55.886719 97.898438 55.5 98.871094 C 55.113281 99.847656 54.003906 100.324219 53.03125 99.9375 C 47.386719 97.691406 42.242188 96.300781 37.3125 95.683594 C 24.863281 94.132812 9.386719 98.847656 3.910156 110.867188 C 3.589844 111.566406 2.898438 111.980469 2.175781 111.980469 Z M 2.167969 111.976562 " fill-opacity="1" fill-rule="nonzero"/><path fill="#0097b2" d="M 357.148438 129.742188 C 351.152344 129.742188 344.289062 128.242188 336.597656 125.238281 C 335.105469 124.65625 333.585938 124.039062 332.109375 123.441406 C 328.734375 122.078125 325.242188 120.660156 321.789062 119.523438 C 320.792969 119.195312 320.25 118.121094 320.578125 117.121094 C 320.902344 116.125 321.980469 115.582031 322.976562 115.910156 C 326.550781 117.085938 330.105469 118.523438 333.539062 119.914062 C 335 120.507812 336.511719 121.117188 337.980469 121.691406 C 351.878906 127.121094 362.632812 127.347656 369.941406 122.371094 C 370.808594 121.78125 371.992188 122.003906 372.585938 122.871094 C 373.175781 123.738281 372.953125 124.921875 372.085938 125.515625 C 367.949219 128.332031 362.957031 129.742188 357.148438 129.742188 Z M 357.148438 129.742188 " fill-opacity="1" fill-rule="nonzero"/><g clip-path="url(#f21e11bbd3)"><path fill="#0097b2" d="M 249.050781 146.164062 C 248.558594 146.164062 248.070312 146.148438 247.570312 146.121094 C 236.324219 145.496094 227.878906 137.871094 219.707031 130.492188 C 213.511719 124.898438 207.101562 119.117188 199.578125 116.507812 C 188.359375 112.625 175.136719 115.449219 157.960938 125.394531 C 156.402344 126.300781 154.816406 127.242188 153.472656 128.042969 C 152.574219 128.582031 151.402344 128.289062 150.863281 127.386719 C 150.328125 126.484375 150.621094 125.316406 151.523438 124.773438 C 152.878906 123.96875 154.472656 123.015625 156.050781 122.105469 C 167.5 115.464844 184.605469 107.296875 200.820312 112.914062 C 209.074219 115.769531 215.773438 121.816406 222.25 127.667969 C 230.28125 134.921875 237.875 141.769531 247.777344 142.324219 C 258.507812 142.921875 267.207031 135.917969 276.421875 128.503906 C 283.046875 123.171875 289.898438 117.664062 297.773438 114.945312 C 298.765625 114.601562 299.851562 115.132812 300.195312 116.125 C 300.535156 117.117188 300.007812 118.203125 299.015625 118.546875 C 291.769531 121.046875 285.175781 126.347656 278.808594 131.472656 C 269.820312 138.699219 260.539062 146.167969 249.046875 146.167969 Z M 249.050781 146.164062 " fill-opacity="1" fill-rule="nonzero"/></g><path fill="#0097b2" d="M 112.4375 143.738281 C 99.464844 143.738281 86.898438 138.183594 75.183594 132.082031 C 73.914062 131.417969 72.644531 130.753906 71.375 130.082031 C 60.539062 124.378906 49.335938 118.476562 37.304688 116.976562 C 24.855469 115.425781 9.378906 120.140625 3.902344 132.15625 C 3.464844 133.113281 2.335938 133.535156 1.382812 133.097656 C 0.425781 132.660156 0.00390625 131.535156 0.441406 130.578125 C 6.976562 116.253906 24.378906 111.527344 37.78125 113.203125 C 50.5 114.789062 62.015625 120.855469 73.15625 126.71875 C 74.421875 127.386719 75.683594 128.050781 76.949219 128.710938 C 88.324219 134.632812 101.617188 140.867188 115.476562 139.824219 C 118.875 139.566406 122.28125 138.886719 125.882812 137.746094 C 126.886719 137.425781 127.953125 137.980469 128.273438 138.980469 C 128.589844 139.980469 128.039062 141.050781 127.039062 141.371094 C 123.148438 142.605469 119.460938 143.339844 115.765625 143.617188 C 114.65625 143.699219 113.554688 143.738281 112.449219 143.738281 Z M 112.4375 143.738281 " fill-opacity="1" fill-rule="nonzero"/><g fill="#0097b2" fill-opacity="1"><g transform="translate(99.374575, 217.379921)"><g><path d="M 51.5 -6.5625 C 62.15625 -7.671875 71.328125 -11.015625 79.03125 -16.546875 C 86.53125 -22.078125 93.109375 -28.890625 98.46875 -37.125 C 103.828125 -45.375 108.109375 -54.484375 111.65625 -64.515625 C 115.203125 -74.546875 118.125 -84.875 120.8125 -95.390625 C 123.359375 -105.703125 125.671875 -115.984375 127.84375 -125.8125 C 130.03125 -135.6875 132.296875 -144.734375 134.90625 -152.65625 C 137.53125 -160.578125 140.546875 -166.9375 143.890625 -172.15625 C 147.265625 -177.15625 151.515625 -180.078125 156.8125 -180.734375 C 159.78125 -181.09375 162.078125 -180.171875 163.71875 -178.1875 C 165.1875 -175.96875 166.09375 -173.5 166.296875 -170.328125 C 166.28125 -167.125 165.671875 -164.0625 164.09375 -160.671875 C 162.515625 -157.265625 160.265625 -154.390625 157.359375 -152.03125 C 161.375 -151.9375 165.09375 -152.59375 168.46875 -154.21875 C 171.875 -155.828125 175.03125 -157.8125 177.484375 -160.515625 C 179.96875 -163.015625 182.03125 -165.875 183.59375 -169.265625 C 184.984375 -172.625 185.765625 -175.9375 185.75 -179.3125 C 185.71875 -182.703125 184.71875 -185.984375 183.109375 -189.375 C 181.3125 -192.546875 178.5625 -195.40625 174.65625 -197.90625 C 171.015625 -199.859375 166.9375 -200.765625 162.34375 -200.578125 C 157.765625 -200.421875 153.171875 -199.0625 148.4375 -196.859375 C 143.546875 -194.46875 138.96875 -191.125 134.46875 -186.953125 C 129.8125 -182.78125 125.828125 -177.703125 122.546875 -171.90625 C 118.609375 -165.03125 114.96875 -157.375 112.015625 -148.828125 C 109.09375 -140.28125 106.171875 -131.53125 103.28125 -122.59375 C 100.40625 -113.640625 97.484375 -104.90625 94.515625 -96.546875 C 91.546875 -88.203125 87.90625 -80.5625 83.71875 -74.046875 C 79.53125 -67.53125 74.609375 -62.15625 69.09375 -58.265625 C 63.375 -54.375 56.625 -52.515625 48.796875 -52.765625 C 43.796875 -52.9375 40 -54.46875 37.265625 -57.328125 C 34.515625 -60.1875 32.453125 -63.90625 31.5 -68.390625 C 30.375 -72.640625 29.984375 -77.40625 30.34375 -82.640625 C 30.515625 -87.65625 31.328125 -92.34375 32.578125 -96.890625 C 33.828125 -101.234375 35.546875 -105.046875 37.59375 -108.09375 C 39.59375 -111.125 41.75 -113 44.09375 -113.484375 C 38.40625 -115.984375 33.0625 -117.125 28.125 -116.703125 C 22.984375 -116.28125 18.390625 -114.703125 14.296875 -112.203125 C 10.03125 -109.671875 6.25 -106.21875 3.1875 -101.84375 C -0.0625 -97.4375 -2.640625 -92.53125 -4.375 -87.140625 C -6.296875 -81.703125 -7.59375 -75.953125 -8.03125 -69.90625 C -8.6875 -63.84375 -8.34375 -57.890625 -7.234375 -52.046875 C -5.765625 -43.421875 -3.0625 -36.15625 0.65625 -30.234375 C 4.234375 -24.09375 8.828125 -19.0625 14.078125 -15.3125 C 19.328125 -11.59375 25.0625 -8.890625 31.421875 -7.46875 C 37.828125 -5.859375 44.421875 -5.6875 51.5 -6.5625 Z M 51.5 -6.5625 "/></g></g></g><g fill="#5ce1e6" fill-opacity="1"><g transform="translate(103.7818, 214.173078)"><g><path d="M 51.5 -6.5625 C 62.15625 -7.671875 71.328125 -11.015625 79.03125 -16.546875 C 86.53125 -22.078125 93.109375 -28.890625 98.46875 -37.125 C 103.828125 -45.375 108.109375 -54.484375 111.65625 -64.515625 C 115.203125 -74.546875 118.125 -84.875 120.8125 -95.390625 C 123.359375 -105.703125 125.671875 -115.984375 127.84375 -125.8125 C 130.03125 -135.6875 132.296875 -144.734375 134.90625 -152.65625 C 137.53125 -160.578125 140.546875 -166.9375 143.890625 -172.15625 C 147.265625 -177.15625 151.515625 -180.078125 156.8125 -180.734375 C 159.78125 -181.09375 162.078125 -180.171875 163.71875 -178.1875 C 165.1875 -175.96875 166.09375 -173.5 166.296875 -170.328125 C 166.28125 -167.125 165.671875 -164.0625 164.09375 -160.671875 C 162.515625 -157.265625 160.265625 -154.390625 157.359375 -152.03125 C 161.375 -151.9375 165.09375 -152.59375 168.46875 -154.21875 C 171.875 -155.828125 175.03125 -157.8125 177.484375 -160.515625 C 179.96875 -163.015625 182.03125 -165.875 183.59375 -169.265625 C 184.984375 -172.625 185.765625 -175.9375 185.75 -179.3125 C 185.71875 -182.703125 184.71875 -185.984375 183.109375 -189.375 C 181.3125 -192.546875 178.5625 -195.40625 174.65625 -197.90625 C 171.015625 -199.859375 166.9375 -200.765625 162.34375 -200.578125 C 157.765625 -200.421875 153.171875 -199.0625 148.4375 -196.859375 C 143.546875 -194.46875 138.96875 -191.125 134.46875 -186.953125 C 129.8125 -182.78125 125.828125 -177.703125 122.546875 -171.90625 C 118.609375 -165.03125 114.96875 -157.375 112.015625 -148.828125 C 109.09375 -140.28125 106.171875 -131.53125 103.28125 -122.59375 C 100.40625 -113.640625 97.484375 -104.90625 94.515625 -96.546875 C 91.546875 -88.203125 87.90625 -80.5625 83.71875 -74.046875 C 79.53125 -67.53125 74.609375 -62.15625 69.09375 -58.265625 C 63.375 -54.375 56.625 -52.515625 48.796875 -52.765625 C 43.796875 -52.9375 40 -54.46875 37.265625 -57.328125 C 34.515625 -60.1875 32.453125 -63.90625 31.5 -68.390625 C 30.375 -72.640625 29.984375 -77.40625 30.34375 -82.640625 C 30.515625 -87.65625 31.328125 -92.34375 32.578125 -96.890625 C 33.828125 -101.234375 35.546875 -105.046875 37.59375 -108.09375 C 39.59375 -111.125 41.75 -113 44.09375 -113.484375 C 38.40625 -115.984375 33.0625 -117.125 28.125 -116.703125 C 22.984375 -116.28125 18.390625 -114.703125 14.296875 -112.203125 C 10.03125 -109.671875 6.25 -106.21875 3.1875 -101.84375 C -0.0625 -97.4375 -2.640625 -92.53125 -4.375 -87.140625 C -6.296875 -81.703125 -7.59375 -75.953125 -8.03125 -69.90625 C -8.6875 -63.84375 -8.34375 -57.890625 -7.234375 -52.046875 C -5.765625 -43.421875 -3.0625 -36.15625 0.65625 -30.234375 C 4.234375 -24.09375 8.828125 -19.0625 14.078125 -15.3125 C 19.328125 -11.59375 25.0625 -8.890625 31.421875 -7.46875 C 37.828125 -5.859375 44.421875 -5.6875 51.5 -6.5625 Z M 51.5 -6.5625 "/></g></g></g></svg>